<svg width="330" height="240" viewBox="0 0 330 240" fill="none" xmlns="http://www.w3.org/2000/svg">
<path d="M190.652 55.9406L190.676 63.7322L197.749 60.4638C208.724 55.3924 220.91 52.5038 233.777 52.3597C282.858 51.8102 323.161 91.4718 323.716 141.029C324.263 189.892 285.963 230.002 237.843 231.643L145.847 141.018L145.847 7.07536C164.061 6.44542 174.437 9.00741 180.621 15.0093C187.378 21.5672 190.582 33.6137 190.652 55.9406Z" fill="#535DA1" stroke="white" stroke-width="10"/>
<path d="M231.268 190.78L231.268 231.671C220.776 231.54 209.7 228.637 199.507 224.13C187.792 218.95 177.669 211.84 171.329 205.038L167.7 201.144L164.04 205.01C147.694 222.28 124.608 233.162 98.9005 233.45C48.6788 234.012 7.5448 193.916 6.98517 143.933C6.42554 93.951 46.6514 52.944 96.8732 52.3817C122.215 52.098 138.207 60.1379 149.418 71.9742C160.877 84.0718 167.732 100.52 173.859 117.899C174.924 120.918 175.969 123.979 177.018 127.049C181.857 141.214 186.758 155.559 193.854 166.825C198.255 173.811 203.655 179.905 210.674 184.235C216.538 187.852 223.335 190.116 231.268 190.78Z" fill="#14B789" stroke="white" stroke-width="10"/>
<circle cx="94.523" cy="143.974" r="36.2465" transform="rotate(179.359 94.523 143.974)" fill="#535DA1" stroke="white" stroke-width="10"/>
<circle cx="234.875" cy="144.877" r="36.2465" transform="rotate(179.359 234.875 144.877)" fill="#14B789" stroke="white" stroke-width="10"/>
</svg>
